#!OML:ASF E:\emotionWalksFemale\Project 1\Capture day 1\Session 1\Female1.ASF
:FULLY-SPECIFIED
:DEGREES
1295
root 8.37111 15.3822 -36.9148 363.37 3.05068 -361.288
lowerback 8.73425 1.68931 1.5873
upperback -3.95627 2.50801 0.470841
thorax -9.06615 1.13954 -0.802808
lowerneck -1.4604 -4.82311 -6.16586
upperneck 1.85222 -6.41144 5.03716
head 1.23069 -3.19498 2.55676
rclavicle -3.08986e-014 -2.10712e-014
rhumerus -31.6835 3.96156 -83.616
rradius 36.5743
rwrist 16.057
rhand 0.292455 -53.1845
rfingers 7.12502
rthumb 25.8705 -801.445
lclavicle -3.08986e-014 -2.10712e-014
lhumerus -43.1823 2.231 87.1346
lradius 52.4066
lwrist -1.54721
lhand -7.48854 -34.5466
lfingers 7.12502
lthumb 18.4009 -5.39694
rfemur 11.7362 16.833 33.6299
rtibia 6.83819e-014
rfoot -16.5071 -33.6552
rtoes 21.231
lfemur -34.9406 -12.9433 -10.9641
ltibia 33.2947
lfoot -19.9606 15.5561
ltoes -18.1286
1296
root 8.37575 15.3759 -36.8722 363.765 3.18051 -361.279
lowerback 8.48091 1.61361 1.39774
upperback -4.0919 2.38835 0.564164
thorax -9.0795 1.09591 -0.572198
lowerneck -1.47207 -4.74104 -6.19586
upperneck 1.86591 -6.29828 4.94891
head 1.22774 -3.13953 2.53546
rclavicle -8.94842e-015 -1.98785e-016
rhumerus -31.5377 4.16427 -83.6878
rradius 36.7711
rwrist 15.8638
rhand 0.276904 -53.4249
rfingers 7.12502
rthumb 25.8556 -801.687
lclavicle -8.94842e-015 -1.98785e-016
lhumerus -43.3432 2.47106 87.1188
lradius 52.2447
lwrist -1.35595
lhand -8.75539 -34.3845
lfingers 7.12502
lthumb 17.1819 -5.12412
rfemur 11.4707 16.5669 33.4895
rtibia -3.18055e-014
rfoot -16.7521 -33.3936
rtoes 21.2737
lfemur -35.387 -14.0627 -10.258
ltibia 32.2016
lfoot -20.179 16.6062
ltoes -18.0477
1297
root 8.3898 15.3746 -36.811 363.662 3.05643 -361.296
lowerback 8.60569 1.60047 1.37564
upperback -4.08713 2.37419 0.608495
thorax -9.15088 1.09091 -0.514494
lowerneck -1.73186 -4.6842 -6.20938
upperneck 2.07149 -6.21054 4.87613
head 1.33177 -3.09425 2.5084
rclavicle 3.7238e-014 8.34896e-015
rhumerus -31.392 4.3125 -83.812
rradius 36.8232
rwrist 15.724
rhand 0.0149016 -53.0872
rfingers 7.12502
rthumb 25.6046 -801.386
lclavicle 3.7238e-014 8.34896e-015
lhumerus -43.5306 2.70158 87.0193
lradius 51.8963
lwrist -1.1628
lhand -7.19171 -34.5575
lfingers 7.12502
lthumb 18.6864 -5.43501
rfemur 11.8289 16.4343 33.5056
rtibia 4.29375e-014
rfoot -16.8248 -33.1892
rtoes 20.5681
lfemur -35.1742 -15.3516 -9.61883
ltibia 31.2254
lfoot -20.5269 17.9087
ltoes -17.3581
1298
root 8.40083 15.376 -36.7579 363.76 3.15354 -361.292
lowerback 8.60322 1.54007 1.39365
upperback -4.14381 2.29322 0.570924
thorax -9.21027 1.0484 -0.552233
lowerneck -1.71955 -4.64703 -6.0926
upperneck 2.0197 -6.16306 4.86549
head 1.30507 -3.06963 2.48559
rclavicle -2.9358e-014 -2.05742e-014
rhumerus -31.3437 4.23648 -84.0072
rradius 36.9345
rwrist 15.8197
rhand -0.179043 -52.7954
rfingers 7.12502
rthumb 25.4189 -801.121
lclavicle -2.9358e-014 -2.05742e-014
lhumerus -43.6166 2.74191 86.8619
lradius 51.3974
lwrist -1.07485
lhand -8.42308 -34.6414
lfingers 7.12502
lthumb 17.5017 -5.40925
rfemur 11.9168 16.1319 33.4478
rtibia -4.45278e-014
rfoot -16.9723 -32.9985
rtoes 20.3937
lfemur -35.301 -16.7515 -8.89181
ltibia 30.3558
lfoot -21.0608 18.9244
ltoes -15.0035
1299
root 8.4145 15.3777 -36.6952 363.921 2.98324 -361.302
lowerback 8.40513 1.55905 1.32487
upperback -4.19756 2.30921 0.593236
thorax -9.15568 1.06192 -0.487221
lowerneck -1.68143 -4.59519 -5.96895
upperneck 1.96294 -6.09475 4.76262
head 1.26706 -3.03595 2.43206
rclavicle -4.56273e-015 -6.85807e-015
rhumerus -31.4449 4.24941 -84.1644
rradius 37.2203
rwrist 15.8584
rhand -0.0626001 -53.3081
rfingers 7.12502
rthumb 25.5304 -801.617
lclavicle -4.56273e-015 -6.85807e-015
lhumerus -43.646 2.98232 86.7184
lradius 50.7877
lwrist -1.06793
lhand -7.7592 -34.6943
lfingers 7.12502
lthumb 18.1405 -5.52021
rfemur 11.9893 16.1039 33.39
rtibia 2.70347e-014
rfoot -17.0249 -32.9047
rtoes 19.9246
lfemur -35.4675 -18.2132 -8.03064
ltibia 29.6567
lfoot -22.3862 19.8457
ltoes -10.7631
1300
root 8.42362 15.3702 -36.6463 363.966 3.24617 -361.381
lowerback 8.67896 1.4043 1.25842
upperback -4.31311 2.1101 0.699433
thorax -9.45339 0.969657 -0.314591
lowerneck -1.79491 -4.54311 -5.94871
upperneck 2.07786 -6.01996 4.67745
head 1.31535 -2.99852 2.39876
rclavicle -3.16502e-015 -1.5704e-014
rhumerus -31.5447 4.35824 -84.2807
rradius 37.5353
rwrist 15.7474
rhand 0.363261 -53.8017
rfingers 7.12502
rthumb 25.9383 -802.052
lclavicle -3.16502e-015 -1.5704e-014
lhumerus -43.7158 3.37134 86.5656
lradius 49.9319
lwrist -1.40087
lhand -7.2394 -34.8459
lfingers 7.12502
lthumb 18.6406 -5.71906
rfemur 12.1166 15.6329 33.444
rtibia -1.43125e-014
rfoot -17.355 -32.7125
rtoes 20.2785
lfemur -35.7025 -19.5349 -7.26306
ltibia 28.9953
lfoot -23.2814 20.3393
ltoes -7.89956
1301
root 8.43868 15.3672 -36.5813 363.936 3.2818 -361.438
lowerback 8.38636 1.35602 1.24686
upperback -4.14693 2.03973 0.757724
thorax -9.10225 0.942338 -0.224361
lowerneck -1.8986 -4.52262 -5.99137
upperneck 1.96393 -5.98524 4.76378
head 1.30013 -2.9788 2.43473
rclavicle -1.71545e-014 7.15625e-015
rhumerus -31.3032 4.52485 -84.5079
rradius 37.6092
rwrist 14.7932
rhand -0.70222 -53.285
rfingers 7.12502
rthumb 24.9176 -801.681
lclavicle -1.71545e-014 7.15625e-015
lhumerus -43.4995 3.54723 86.5094
lradius 48.8777
lwrist -2.19562
lhand -8.16348 -34.9701
lfingers 7.12502
lthumb 17.7515 -5.76038
rfemur 12.4062 15.363 33.4982
rtibia -2.38542e-014
rfoot -17.352 -32.6226
rtoes 19.7774
lfemur -35.6489 -20.8029 -6.64428
ltibia 28.3457
lfoot -23.8053 21.4716
ltoes -7.85875
1302
root 8.45187 15.3644 -36.5184 364.161 3.28534 -361.385
lowerback 7.99608 1.35212 1.10163
upperback -4.14311 2.01006 0.762814
thorax -8.87375 0.939298 -0.122442
lowerneck -1.88359 -4.48825 -6.06221
upperneck 1.84308 -5.9392 4.9156
head 1.26477 -2.95431 2.50063
rclavicle -2.65253e-015 2.60408e-014
rhumerus -31.2467 4.2814 -84.5856
rradius 37.6377
rwrist 14.9331
rhand -0.572173 -53.1825
rfingers 7.12502
rthumb 25.0422 -801.561
lclavicle -2.65253e-015 2.60408e-014
lhumerus -43.3991 3.62 86.4264
lradius 47.8734
lwrist -2.88322
lhand -8.5887 -34.703
lfingers 7.12502
lthumb 17.3423 -5.4567
rfemur 12.4368 15.1756 33.3702
rtibia 1.59028e-014
rfoot -17.3404 -32.5312
rtoes 19.2063
lfemur -35.9798 -22.1131 -5.96691
ltibia 27.872
lfoot -24.399 22.7602
ltoes -7.91452
1303
root 8.46567 15.347 -36.4571 364.15 3.27745 -361.369
lowerback 8.34849 1.34791 0.96022
upperback -4.31678 1.9974 0.769986
thorax -9.27615 0.938207 -0.0449573
lowerneck -2.04187 -4.45776 -6.02495
upperneck 2.10744 -5.89844 4.93061
head 1.37453 -2.93243 2.49478
rclavicle 1.09953e-014 -3.37934e-015
rhumerus -31.6998 4.13009 -84.718
rradius 37.8968
rwrist 14.8571
rhand -0.418976 -52.778
rfingers 7.12502
rthumb 25.189 -801.136
lclavicle 1.09953e-014 -3.37934e-015
lhumerus -43.5438 3.6847 86.2316
lradius 46.8455
lwrist -3.28926
lhand -8.03469 -34.3251
lfingers 7.12502
lthumb 17.8755 -5.1266
rfemur 12.7297 14.9474 33.34
rtibia -2.8625e-014
rfoot -17.5309 -32.3112
rtoes 19.5225
lfemur -36.1414 -23.7167 -5.16153
ltibia 27.3327
lfoot -25.4848 23.8869
ltoes -6.03085
1304
root 8.47857 15.3585 -36.394 364.232 3.24323 -361.407
lowerback 8.18854 1.34601 0.933123
upperback -4.25207 1.98805 0.773727
thorax -9.11212 0.936931 -0.0193332
lowerneck -2.38121 -4.4873 -5.84229
upperneck 2.15005 -5.92332 4.82001
head 1.43824 -2.94061 2.41661
rclavicle -1.55301e-017 -3.18055e-015
rhumerus -31.7366 3.97854 -84.8535
rradius 38.0683
rwrist 14.4848
rhand -0.556271 -52.5081
rfingers 7.12502
rthumb 25.0575 -800.884
lclavicle -1.55301e-017 -3.18055e-015
lhumerus -43.2347 3.85785 86.0312
lradius 45.6876
lwrist -3.83385
lhand -7.59328 -34.348
lfingers 7.12502
lthumb 18.3001 -5.18881
rfemur 12.8544 14.7743 33.3165
rtibia 9.54166e-014
rfoot -17.4033 -32.1204
rtoes 18.8585
lfemur -36.0941 -24.829 -4.62934
ltibia 26.9674
lfoot -26.2772 24.8178
ltoes -6.16706
